<svg xmlns="http://www.w3.org/2000/svg" xmlns:xlink="http://www.w3.org/1999/xlink" width="305.434" height="311.75" viewBox="0 0 305.434 311.75"><defs><style>.a{fill:#333;}.b{fill:#656565;}.c{fill:url(#a);}.d{fill:url(#b);}.e{fill:url(#e);}.f{fill:url(#f);}.g{filter:url(#g);}.h{filter:url(#c);}</style><linearGradient id="a" x1="-1.126" y1="5.045" x2="-2.126" y2="5.045" gradientUnits="objectBoundingBox"><stop offset="0" stop-color="#d50000"/><stop offset="0.314" stop-color="#ee5a5a"/><stop offset="1" stop-color="#ff9797"/></linearGradient><linearGradient id="b" x1="-0.107" y1="0.063" x2="0.413" y2="-0.937" gradientUnits="objectBoundingBox"><stop offset="0" stop-color="#ff2e2e"/><stop offset="0.425" stop-color="#d50000"/><stop offset="1" stop-color="#950000"/></linearGradient><filter id="c" x="35.241" y="82.557" width="232.094" height="82.228" filterUnits="userSpaceOnUse"><feOffset dy="-3" input="SourceAlpha"/><feGaussianBlur stdDeviation="3" result="d"/><feFlood flood-opacity="0.161"/><feComposite operator="in" in2="d"/><feComposite in="SourceGraphic"/></filter><linearGradient id="e" x1="-0.39" y1="4.402" x2="-1.39" y2="4.402" gradientUnits="objectBoundingBox"><stop offset="0" stop-color="#8e8e8e"/><stop offset="1" stop-color="#006d15"/></linearGradient><linearGradient id="f" y1="0.451" x2="1.032" y2="0.219" gradientUnits="objectBoundingBox"><stop offset="0" stop-color="#d4d4d4"/><stop offset="1" stop-color="#484646"/></linearGradient><filter id="g" x="35.241" y="0" width="232.093" height="82.228" filterUnits="userSpaceOnUse"><feOffset dy="3" input="SourceAlpha"/><feGaussianBlur stdDeviation="3" result="h"/><feFlood flood-opacity="0.161"/><feComposite operator="in" in2="h"/><feComposite in="SourceGraphic"/></filter></defs><g transform="translate(-479.808 -261.61)"><path class="a" d="M479.808,531.825V469.719h16.779v48.555H520.5v13.551Z"/><path class="a" d="M583.248,469.719V507.1q0,12.191-6.9,18.882t-19.9,6.691q-12.7,0-19.519-6.5T530.1,507.483V469.719h16.865v36.448q0,6.585,2.464,9.559T556.7,518.7q5.141,0,7.455-2.952t2.316-9.664V469.719Z"/><path class="a" d="M655.422,531.825H633.417L610.732,488.07h-.381q.805,10.323.806,15.761v27.994H596.289V469.719h21.92l22.6,43.16h.254q-.594-9.389-.594-15.081V469.719h14.953Z"/><path class="a" d="M706.95,531.825l-3.058-11.639H683.714l-3.144,11.639H662.134L682.4,469.464h22.387L725.3,531.825Zm-6.541-25.4-2.677-10.2q-.934-3.4-2.272-8.794T693.7,479.7q-.381,2.166-1.508,7.137T687.2,506.422Z"/><path class="a" d="M748.795,509.226v22.6h-16.78V469.719h20.348q25.317,0,25.319,18.351,0,10.791-10.536,16.7l18.1,27.06H766.211l-13.168-22.6Zm0-12.618h3.142q8.8,0,8.794-7.773,0-6.414-8.624-6.414h-3.312Z"/><path class="b" d="M555.113,550.668H563.2a8.378,8.378,0,0,1,3.038.527,7.015,7.015,0,0,1,2.34,1.457,6.359,6.359,0,0,1,1.5,2.217,7.338,7.338,0,0,1,.527,2.8,5.831,5.831,0,0,1-.372,2.093,6.272,6.272,0,0,1-1.023,1.767,7.578,7.578,0,0,1-1.519,1.4,7.7,7.7,0,0,1-1.829.945l-.031.217,5.952,8.525v.248h-4.8l-5.735-8.339H559.3v8.339h-4.185Zm8.06,10.014a3.266,3.266,0,0,0,2.341-.869,2.9,2.9,0,0,0,.914-2.2,3.387,3.387,0,0,0-.2-1.147,2.881,2.881,0,0,0-.6-.991,2.973,2.973,0,0,0-1.008-.7,3.452,3.452,0,0,0-1.38-.262H559.3v6.169Z"/><path class="b" d="M584.842,573.36a11.669,11.669,0,0,1-4.6-.9,11.211,11.211,0,0,1-6.107-6.153,12.121,12.121,0,0,1,0-9.083,11.217,11.217,0,0,1,6.107-6.154,12.236,12.236,0,0,1,9.207,0,11.226,11.226,0,0,1,6.107,6.154,12.108,12.108,0,0,1,0,9.083A11.42,11.42,0,0,1,593.118,570a11.3,11.3,0,0,1-3.673,2.464A11.675,11.675,0,0,1,584.842,573.36Zm0-3.967a7.5,7.5,0,0,0,2.9-.559,7.292,7.292,0,0,0,2.356-1.55,7.053,7.053,0,0,0,1.581-2.4,8.745,8.745,0,0,0,0-6.232,7.072,7.072,0,0,0-1.581-2.4,7.308,7.308,0,0,0-2.356-1.55,7.82,7.82,0,0,0-5.8,0,7.308,7.308,0,0,0-2.356,1.55,7.072,7.072,0,0,0-1.581,2.4,8.759,8.759,0,0,0,0,6.232,7.053,7.053,0,0,0,1.581,2.4,7.292,7.292,0,0,0,2.356,1.55A7.506,7.506,0,0,0,584.842,569.393Z"/><path class="b" d="M599.815,550.668h8.68a7.761,7.761,0,0,1,2.666.45,6.823,6.823,0,0,1,2.154,1.239,5.946,5.946,0,0,1,1.442,1.845,5.371,5.371,0,0,1-.325,5.224,5.6,5.6,0,0,1-2.124,1.813v.248a6.05,6.05,0,0,1,2.744,1.938,5.123,5.123,0,0,1,1.038,3.27,5.594,5.594,0,0,1-.573,2.558,5.921,5.921,0,0,1-1.566,1.937,7.2,7.2,0,0,1-2.309,1.241,9.033,9.033,0,0,1-2.837.433h-8.99Zm8.37,9.053a3.044,3.044,0,0,0,2.248-.791,2.621,2.621,0,0,0,.015-3.736,2.893,2.893,0,0,0-2.139-.775H604v5.3Zm.465,9.3a3.387,3.387,0,0,0,2.418-.792,2.666,2.666,0,0,0,.837-2.03,2.745,2.745,0,0,0-.852-2.061,3.514,3.514,0,0,0-2.527-.822H604v5.705Z"/><path class="b" d="M629.823,573.36a11.668,11.668,0,0,1-4.6-.9A11.3,11.3,0,0,1,621.546,570a11.42,11.42,0,0,1-2.434-3.689,12.121,12.121,0,0,1,0-9.083,11.223,11.223,0,0,1,6.108-6.154,12.236,12.236,0,0,1,9.207,0,11.22,11.22,0,0,1,6.106,6.154,12.108,12.108,0,0,1,0,9.083,11.213,11.213,0,0,1-6.106,6.153A11.676,11.676,0,0,1,629.823,573.36Zm0-3.967a7.513,7.513,0,0,0,2.9-.559,7.3,7.3,0,0,0,2.355-1.55,7.053,7.053,0,0,0,1.581-2.4,8.745,8.745,0,0,0,0-6.232,7.072,7.072,0,0,0-1.581-2.4,7.314,7.314,0,0,0-2.355-1.55,7.82,7.82,0,0,0-5.8,0,7.3,7.3,0,0,0-2.357,1.55,7.072,7.072,0,0,0-1.581,2.4,8.759,8.759,0,0,0,0,6.232,7.053,7.053,0,0,0,1.581,2.4,7.286,7.286,0,0,0,2.357,1.55A7.5,7.5,0,0,0,629.823,569.393Z"/><path class="b" d="M648.578,572.864V554.637h-6.2v-3.969h16.585v3.969h-6.2v18.227Z"/><path class="b" d="M661.938,550.668h4.185v22.2h-4.185Z"/><path class="b" d="M689.683,569.3a11.022,11.022,0,0,1-3.875,3.022,12.375,12.375,0,0,1-9.594.14,11.247,11.247,0,0,1-6.123-6.122,12.081,12.081,0,0,1,0-9.146,11.264,11.264,0,0,1,6.123-6.122,11.685,11.685,0,0,1,4.6-.9,11.164,11.164,0,0,1,4.7.931,10.927,10.927,0,0,1,3.611,2.7l-2.945,2.852a7.881,7.881,0,0,0-2.279-1.829,6.437,6.437,0,0,0-3.053-.681,7.8,7.8,0,0,0-2.914.542,7.055,7.055,0,0,0-2.372,1.534,7.252,7.252,0,0,0-1.6,2.4,8.7,8.7,0,0,0,0,6.293,7.226,7.226,0,0,0,1.6,2.4,7.041,7.041,0,0,0,2.372,1.535,7.8,7.8,0,0,0,2.914.543,6.967,6.967,0,0,0,3.3-.76,8.127,8.127,0,0,0,2.558-2.154Z"/><path class="b" d="M699.82,573.36a9.16,9.16,0,0,1-2.728-.4,7.868,7.868,0,0,1-2.387-1.209,8.348,8.348,0,0,1-1.892-1.969,9.512,9.512,0,0,1-1.27-2.712l3.936-1.549a6.012,6.012,0,0,0,1.52,2.774,3.829,3.829,0,0,0,2.852,1.1,4.586,4.586,0,0,0,1.255-.171,3.738,3.738,0,0,0,1.085-.5,2.4,2.4,0,0,0,.76-.822,2.3,2.3,0,0,0,.278-1.147,2.762,2.762,0,0,0-.216-1.115,2.62,2.62,0,0,0-.729-.931,6.526,6.526,0,0,0-1.333-.837,20.23,20.23,0,0,0-2.03-.837l-1.364-.5a10.376,10.376,0,0,1-1.814-.837,7.909,7.909,0,0,1-1.658-1.27,6.282,6.282,0,0,1-1.225-1.752,5.231,5.231,0,0,1-.48-2.279,5.839,5.839,0,0,1,.512-2.433,5.948,5.948,0,0,1,1.457-1.985,6.868,6.868,0,0,1,2.262-1.333,8.531,8.531,0,0,1,2.93-.48,8.4,8.4,0,0,1,2.9.45,7.156,7.156,0,0,1,2.078,1.147A6.368,6.368,0,0,1,705.9,553.3a7.439,7.439,0,0,1,.775,1.58l-3.69,1.551a3.922,3.922,0,0,0-1.13-1.674,3.227,3.227,0,0,0-2.248-.744,3.835,3.835,0,0,0-2.263.634,1.947,1.947,0,0,0-.9,1.66,2.1,2.1,0,0,0,.869,1.689,9.477,9.477,0,0,0,2.758,1.349l1.4.464a15.879,15.879,0,0,1,2.433,1.07,7.624,7.624,0,0,1,1.891,1.441A5.855,5.855,0,0,1,707,564.23a6.736,6.736,0,0,1,.419,2.465,6.068,6.068,0,0,1-.7,2.992,6.419,6.419,0,0,1-1.783,2.061,7.748,7.748,0,0,1-2.45,1.209A9.367,9.367,0,0,1,699.82,573.36Z"/><g transform="translate(524.049 267.61)"><rect class="c" width="152.785" height="42.819" rx="21.409" transform="translate(42.819 0) rotate(90)"/><g class="h" transform="matrix(1, 0, 0, 1, -44.24, -6)"><path class="d" d="M500.41,369.187H671.684a21.4,21.4,0,0,1,21.4,20.9c.281,12.1-9.788,21.919-21.888,21.919H500.41A21.4,21.4,0,0,1,479,390.6V347.777A21.409,21.409,0,0,0,500.41,369.187Z" transform="translate(-434.76 -253.22)"/></g><rect class="e" width="152.785" height="42.819" rx="21.409" transform="translate(171.275 152.785) rotate(-90)"/><g class="g" transform="matrix(1, 0, 0, 1, -44.24, -6)"><path class="f" d="M671.684,264.819H500.41a21.409,21.409,0,1,1,0-42.819H671.684a21.4,21.4,0,0,1,21.409,21.41v42.819A21.409,21.409,0,0,0,671.684,264.819Z" transform="translate(-434.76 -216)"/></g></g></g></svg>